<?xml version="1.0" encoding="UTF-8" standalone="no"?>
<!-- Created with Inkscape (http://www.inkscape.org/) -->

<svg
   width="512"
   height="512"
   viewBox="0 0 135.46666 135.46667"
   version="1.1"
   id="svg1"
   inkscape:version="1.4-beta3 (01c8a1ca, 2024-08-28)"
   sodipodi:docname="cartolex_favicon_512x512.svg"
   xmlns:inkscape="http://www.inkscape.org/namespaces/inkscape"
   xmlns:sodipodi="http://sodipodi.sourceforge.net/DTD/sodipodi-0.dtd"
   xmlns="http://www.w3.org/2000/svg"
   xmlns:svg="http://www.w3.org/2000/svg">
  <sodipodi:namedview
     id="namedview1"
     pagecolor="#ffffff"
     bordercolor="#000000"
     borderopacity="0.25"
     inkscape:showpageshadow="2"
     inkscape:pageopacity="0.0"
     inkscape:pagecheckerboard="0"
     inkscape:deskcolor="#d1d1d1"
     inkscape:document-units="mm"
     inkscape:zoom="0.70898438"
     inkscape:cx="256"
     inkscape:cy="255.29477"
     inkscape:window-width="1216"
     inkscape:window-height="623"
     inkscape:window-x="362"
     inkscape:window-y="240"
     inkscape:window-maximized="0"
     inkscape:current-layer="layer1" />
  <defs
     id="defs1">
    <clipPath
       clipPathUnits="userSpaceOnUse"
       id="clipPath3-7">
      <path
         d="m 50.79362,72 h 510.4128 V 732.0713 H 50.79362 Z"
         transform="matrix(1,0,0,-1,-72.000002,607.37032)"
         id="path3-6" />
    </clipPath>
  </defs>
  <g
     inkscape:label="Layer 1"
     inkscape:groupmode="layer"
     id="layer1">
    <g
       id="g1"
       transform="matrix(2.0135453,0,0,2.0135453,-68.260455,-68.180342)">
      <g
         id="g2"
         transform="matrix(1.1404396,0,0,1.1404396,-79.10374,-181.08445)"
         style="fill:#1b5420;fill-opacity:1">
        <text
           id="text2"
           xml:space="preserve"
           transform="matrix(1.3333333,0,0,1.3333333,96,246.17293)"
           clip-path="url(#clipPath3-7)"
           style="fill:#1b5420;fill-opacity:1"><tspan
             id="tspan2"
             style="font-variant:normal;font-weight:normal;font-size:65px;font-family:'EB Garamond';writing-mode:lr-tb;fill:#1b5420;fill-opacity:1;fill-rule:nonzero;stroke:none"
             x="0"
             y="0">C </tspan></text>
      </g>
      <path
         id="text3"
         style="font-size:37px;font-family:'EB Garamond';fill:#1b5420;fill-opacity:1;stroke-width:2.45325"
         d="m 78.633286,52.136766 c -1.210264,0 -2.601851,0.272543 -4.175226,0.817152 -1.573324,0.544622 -3.177166,1.300331 -4.811031,2.268555 -1.633864,0.968224 -3.146828,2.08807 -4.538649,3.358838 -1.149749,0.968211 -2.057381,2.027003 -2.72303,3.176763 -0.605136,1.089244 -0.907426,2.118235 -0.907426,3.086471 0,0.242041 0.09084,0.453503 0.272378,0.635052 0.181547,0.121058 0.423527,0.182151 0.726093,0.182151 0.605137,0 1.361622,-0.181612 2.269334,-0.544748 0.968213,-0.423614 1.81554,-0.877806 2.54169,-1.361912 0.786683,-0.544622 1.179805,-0.968286 1.179805,-1.270843 0,-0.242065 -0.03054,-0.513818 -0.09107,-0.816375 v -0.817152 c 0,-0.544622 0.06108,-1.059105 0.182153,-1.543223 0.12107,-0.484106 0.363003,-0.847467 0.726096,-1.089533 0.605137,-0.484093 1.36161,-0.87723 2.269324,-1.179811 0.907694,-0.302557 1.815327,-0.453704 2.723034,-0.453704 1.754873,0 3.086183,0.574799 3.993877,1.724572 0.968174,1.149735 1.421614,2.511572 1.361135,4.084934 l -0.181411,5.808754 c -0.06053,1.210264 -0.211663,1.99729 -0.453728,2.360363 -0.181612,0.363073 -0.877706,0.786762 -2.087983,1.270868 l -9.258628,3.812542 c -2.238984,0.907707 -3.872584,1.906183 -4.901314,2.995414 -1.028729,1.089257 -1.543233,2.601463 -1.543233,4.537873 0,1.089257 0.363359,2.239644 1.08952,3.449908 0.786677,1.210264 1.724841,2.238503 2.814091,3.085719 1.14974,0.847191 2.268845,1.270843 3.358071,1.270843 1.936442,0 3.812013,-0.393124 5.627402,-1.179812 1.815415,-0.726158 3.722275,-1.906308 5.719226,-3.540174 h 0.271616 c 1.633865,3.146712 3.843019,4.719986 6.626645,4.719986 0.968236,0 1.997226,-0.302293 3.086458,-0.907432 1.149758,-0.544622 2.208528,-1.301107 3.176748,-2.269318 0.66566,-0.665655 0.99848,-1.33131 0.99848,-1.996939 0,-0.302582 -0.0909,-0.54456 -0.27239,-0.726109 -0.18159,-0.181586 -0.42351,-0.272367 -0.72609,-0.272367 -0.18161,0 -0.42352,0.151046 -0.72608,0.453703 -0.72616,0.66563 -1.84601,0.998476 -3.358852,0.998476 -0.968198,0 -1.785,-0.393137 -2.450654,-1.179812 -0.605101,-0.786674 -0.877619,-1.815678 -0.81714,-3.086458 l 0.453716,-21.785055 c 0.06053,-2.29952 -0.634914,-4.205641 -2.087231,-5.718486 -1.3918,-1.573337 -3.177314,-2.359611 -5.355789,-2.359611 z m 7.65e-4,22.238783 c 0.363048,0 0.605025,0.151247 0.726083,0.453703 0.120932,0.302582 0.150695,0.786537 0.09023,1.452204 l -0.181423,4.447594 c -0.06053,1.149773 -0.211663,1.997089 -0.453716,2.541711 -0.181587,0.484106 -0.423502,0.87723 -0.726096,1.179812 -0.66563,0.665629 -1.422115,1.210678 -2.269319,1.634267 -0.847191,0.363085 -1.876194,0.54476 -3.086458,0.54476 -1.089244,0 -2.118247,-0.393864 -3.086477,-1.180551 -0.907697,-0.847179 -1.361131,-2.05713 -1.361131,-3.630479 0,-1.028728 0.60534,-2.148587 1.815614,-3.358839 1.27079,-1.270793 3.5097,-2.480693 6.716941,-3.630479 0.48408,-0.181586 0.877217,-0.302945 1.179786,-0.363411 0.302532,-0.06053 0.514746,-0.09048 0.635829,-0.09048 z" />
    </g>
  </g>
</svg>
